<?xml version="1.0" encoding="UTF-8"?> <svg xmlns="http://www.w3.org/2000/svg" width="137.542" height="42.657" viewBox="0 0 137.542 42.657"><g transform="translate(-48.034 -63.343)"><g transform="translate(81.544 75.338)"><path d="M15.663,197.822h-.732a.2.2,0,0,1-.231-.231v-9.86a.2.2,0,0,1,.231-.231H19.9a.2.2,0,0,1,.231.231v.578a.2.2,0,0,1-.231.231H16.048c-.116,0-.154.039-.154.154v3.5c0,.116.039.154.154.154h3.428a.2.2,0,0,1,.231.231v.578a.2.2,0,0,1-.231.231H16.048c-.116,0-.154.039-.154.154v4.083C15.894,197.745,15.817,197.822,15.663,197.822Z" transform="translate(-14.7 -187.5)" fill="#fff"></path><path d="M43.394,187.731v9.86a.2.2,0,0,1-.231.231h-.732a.2.2,0,0,1-.231-.231v-9.86a.2.2,0,0,1,.231-.231h.732A.2.2,0,0,1,43.394,187.731Z" transform="translate(-31.608 -187.5)" fill="#fff"></path><path d="M61.243,197.822h-.732a.2.2,0,0,1-.231-.231v-8.9a.141.141,0,0,0-.154-.154h-2.2a.2.2,0,0,1-.231-.231v-.578a.2.2,0,0,1,.231-.231h5.854a.2.2,0,0,1,.231.231v.578a.2.2,0,0,1-.231.231h-2.2c-.116,0-.154.039-.154.154v8.9C61.475,197.745,61.4,197.822,61.243,197.822Z" transform="translate(-41.138 -187.5)" fill="#fff"></path><path d="M87.424,197.822h-.693a.2.2,0,0,1-.231-.231v-9.86a.2.2,0,0,1,.231-.231h.655a.3.3,0,0,1,.27.116l4.429,7.78h.077v-7.665a.2.2,0,0,1,.231-.231h.693a.2.2,0,0,1,.231.231v9.86a.2.2,0,0,1-.231.231H92.47a.532.532,0,0,1-.347-.193l-4.391-7.7h-.077v7.665A.2.2,0,0,1,87.424,197.822Z" transform="translate(-58.845 -187.5)" fill="#fff"></path><path d="M124.177,197.822h-5.046a.2.2,0,0,1-.231-.231v-9.86a.2.2,0,0,1,.231-.231h5.046a.2.2,0,0,1,.231.231v.578a.2.2,0,0,1-.231.231h-3.929c-.116,0-.154.039-.154.154v3.235a.141.141,0,0,0,.154.154h3.428a.2.2,0,0,1,.231.231v.578a.2.2,0,0,1-.231.231h-3.428c-.116,0-.154.039-.154.154v3.428a.141.141,0,0,0,.154.154h3.929a.2.2,0,0,1,.231.231v.578C124.408,197.745,124.331,197.822,124.177,197.822Z" transform="translate(-78.766 -187.5)" fill="#fff"></path><path d="M147,195.557v-.5a.2.2,0,0,1,.231-.231h.732a.2.2,0,0,1,.231.231v.424a1.25,1.25,0,0,0,1.425,1.425h1.425a1.277,1.277,0,0,0,1.425-1.464V194.9c0-.77-.655-1.271-1.926-1.5a12.122,12.122,0,0,1-1.618-.347,2.712,2.712,0,0,1-1.348-.732,2.032,2.032,0,0,1-.578-1.5v-.77a2.142,2.142,0,0,1,2.35-2.349h1.772a2.2,2.2,0,0,1,2.388,2.349v.385c0,.154-.077.231-.193.231h-.732c-.154,0-.193-.077-.193-.231v-.308a1.277,1.277,0,0,0-1.425-1.464h-1.348c-.963,0-1.425.5-1.425,1.541v.655c0,.539.347.924,1.078,1.117q.462.116,1.04.231c.385.077.77.154,1.155.27a8.971,8.971,0,0,1,1.078.424,1.854,1.854,0,0,1,.77.77,2.433,2.433,0,0,1,.308,1.233v.732a2.2,2.2,0,0,1-2.388,2.349h-1.849a2.332,2.332,0,0,1-1.733-.616A2.5,2.5,0,0,1,147,195.557Z" transform="translate(-96.043 -187.623)" fill="#fff"></path><path d="M178.4,195.557v-.5a.2.2,0,0,1,.231-.231h.732a.2.2,0,0,1,.231.231v.424a1.25,1.25,0,0,0,1.425,1.425h1.425a1.277,1.277,0,0,0,1.425-1.464V194.9c0-.77-.616-1.271-1.926-1.5a12.123,12.123,0,0,1-1.618-.347,2.712,2.712,0,0,1-1.348-.732,2.126,2.126,0,0,1-.578-1.5v-.77a2.142,2.142,0,0,1,2.35-2.349h1.772a2.2,2.2,0,0,1,2.388,2.349v.385c0,.154-.077.231-.193.231h-.732c-.154,0-.193-.077-.193-.231v-.308a1.277,1.277,0,0,0-1.425-1.464h-1.348c-.963,0-1.425.5-1.425,1.541v.655c0,.539.347.924,1.078,1.117q.462.116,1.04.231c.385.077.77.154,1.155.27a8.968,8.968,0,0,1,1.078.424,1.854,1.854,0,0,1,.77.77,2.434,2.434,0,0,1,.308,1.233v.732a2.2,2.2,0,0,1-2.388,2.349h-1.849a2.332,2.332,0,0,1-1.733-.616A2.5,2.5,0,0,1,178.4,195.557Z" transform="translate(-115.349 -187.623)" fill="#fff"></path><path d="M215.392,197.822h-5.161a.2.2,0,0,1-.231-.231v-9.86a.2.2,0,0,1,.231-.231h.732a.2.2,0,0,1,.231.231v8.859c0,.116.039.154.154.154h4.044a.2.2,0,0,1,.231.231v.578C215.623,197.745,215.546,197.822,215.392,197.822Z" transform="translate(-134.778 -187.5)" fill="#fff"></path><path d="M235.941,197.822h-.809c-.154,0-.193-.077-.154-.231l3-9.86a.293.293,0,0,1,.308-.231h1.156a.293.293,0,0,1,.308.231l3,9.86c.038.154,0,.231-.154.231H241.8q-.173,0-.231-.231l-.77-2.349H236.9l-.77,2.349C236.133,197.745,236.056,197.822,235.941,197.822Zm2.889-9.09-1.656,5.546h3.351l-1.656-5.546Z" transform="translate(-150.127 -187.5)" fill="#fff"></path><path d="M268,197.591v-9.86a.2.2,0,0,1,.231-.231h3.775a2.142,2.142,0,0,1,2.35,2.349v.886a1.763,1.763,0,0,1-1.348,1.849,1.393,1.393,0,0,1,1.04.539,1.944,1.944,0,0,1,.424,1.271v1.078a2.142,2.142,0,0,1-2.349,2.35h-3.89C268.039,197.822,268,197.745,268,197.591Zm1.31-5.508h2.465a1.243,1.243,0,0,0,1.425-1.348v-.847a1.186,1.186,0,0,0-1.348-1.348h-2.5c-.115,0-.154.039-.154.154v3.274Q269.136,192.083,269.31,192.083Zm0,4.738h2.619a1.214,1.214,0,0,0,1.387-1.348v-1.04c0-.924-.5-1.348-1.464-1.348H269.31c-.116,0-.154.039-.154.154v3.466C269.156,196.782,269.194,196.821,269.31,196.821Z" transform="translate(-170.439 -187.5)" fill="#fff"></path><g transform="translate(0 13.681)"><path d="M78.3,232.5h.835l1.74,3.688,1.74-3.688h.835v5.984h-.835V234.24l-1.461,2.992H80.6l-1.461-2.992v4.245H78.3Z" transform="translate(-78.3 -230.621)" fill="#fff"></path><path d="M90.5,232.5h.9v5.984h-.9Z" transform="translate(-82.01 -230.621)" fill="#fff"></path><path d="M100.336,236.893c-.07,1.044-.765,1.531-2.018,1.531a1.777,1.777,0,0,1-1.67-.765,2.718,2.718,0,0,1-.348-1.67v-1.252a2.562,2.562,0,0,1,.487-1.809,1.9,1.9,0,0,1,1.6-.626c1.253,0,1.879.557,1.948,1.6l-.835.07c-.07-.626-.418-.9-1.113-.9-.835,0-1.183.487-1.183,1.74v1.113c0,1.253.348,1.74,1.183,1.74a1.092,1.092,0,0,0,1.183-.9Z" transform="translate(-83.774 -230.56)" fill="#fff"></path><path d="M106.4,232.5h.9v2.575h2.3V232.5h.9v5.984h-.9V235.84h-2.3v2.644h-.9Z" transform="translate(-86.846 -230.621)" fill="#fff"></path><path d="M117.492,237.132l-.418,1.253H116.1l2.157-5.984h.835l2.157,5.984h-.974l-.418-1.253Zm1.253-3.618-.974,2.923h2.018Z" transform="translate(-89.796 -230.591)" fill="#fff"></path><path d="M127,232.5h.9v5.219h2.714v.765H127Z" transform="translate(-93.111 -230.621)" fill="#fff"></path><path d="M135.9,232.5h.9v5.984h-.9Z" transform="translate(-95.818 -230.621)" fill="#fff"></path><path d="M141.9,232.5h.835l2.644,4.454V232.5h.835v5.984h-.835l-2.644-4.454v4.454H141.9Z" transform="translate(-97.643 -230.621)" fill="#fff"></path><path d="M153.392,237.132l-.417,1.253H152l2.157-5.984h.835l2.157,5.984h-.974l-.418-1.253Zm1.253-3.618-.974,2.923h2.018Z" transform="translate(-100.715 -230.591)" fill="#fff"></path><path d="M167.77,232.5h.9v2.992l2.3-2.992h1.044l-1.948,2.436,2.088,3.549H171.11l-1.67-2.923-.835,1.044v1.879h-.9V232.5Z" transform="translate(-105.49 -230.621)" fill="#fff"></path><path d="M177.4,232.5h.9l1.044,4.662L180.6,232.5h.626l1.253,4.662,1.044-4.662h.9l-1.531,5.984h-.765l-1.253-4.454-1.253,4.454h-.765Z" transform="translate(-108.44 -230.621)" fill="#fff"></path><path d="M191.292,237.132l-.418,1.253H189.9l2.157-5.984h.835l2.157,5.984h-.9l-.417-1.253Zm1.252-3.618-.974,2.923h2.018Z" transform="translate(-112.241 -230.591)" fill="#fff"></path><path d="M200.765,236.341a1.575,1.575,0,0,0,1.392.626c.765,0,1.253-.348,1.253-.974a.856.856,0,0,0-.348-.7c-.209-.139-.209-.139-1.044-.348-1.253-.278-1.67-.765-1.67-1.74,0-1.044.7-1.67,1.879-1.67a1.988,1.988,0,0,1,1.809.835l-.7.417a1.392,1.392,0,0,0-1.183-.557.919.919,0,0,0-1.044.9c0,.557.348.835,1.252,1.044a4.791,4.791,0,0,1,1.253.418,1.357,1.357,0,0,1,.557,1.253c0,1.113-.7,1.74-2.088,1.74a2.158,2.158,0,0,1-2.088-.9Zm1.6-6.541h.974l-.974,1.253h-.626Z" transform="translate(-115.313 -229.8)" fill="#fff"></path><path d="M210.2,232.5h.835l2.644,4.454V232.5h.835v5.984h-.835l-2.644-4.454v4.454H210.2Z" transform="translate(-118.415 -230.621)" fill="#fff"></path><path d="M221.792,237.132l-.418,1.253H220.4l2.157-5.984h.835l2.157,5.984h-.974l-.418-1.253Zm1.183-3.618L222,236.436h2.018Z" transform="translate(-121.518 -230.591)" fill="#fff"></path></g></g><g transform="translate(48.034 63.343)"><circle cx="2.08" cy="2.08" r="2.08" transform="translate(7.897 24.227)" fill="#e04cab"></circle><path d="M147.65,132.638a10.127,10.127,0,0,0-6.625-8.936,9.579,9.579,0,0,0-2.7-.539v-2a10.167,10.167,0,0,0,6.856-3.351,10.044,10.044,0,0,0,2.465-6.124c.039-.847-1.233-.847-1.31,0a8.69,8.69,0,0,1-15.214,5.277,8.567,8.567,0,0,1-2.118-5.277c-.039-.809-1.348-.847-1.31,0a10.127,10.127,0,0,0,6.625,8.936,9.578,9.578,0,0,0,2.7.539v2a10.167,10.167,0,0,0-6.856,3.351,10.044,10.044,0,0,0-2.465,6.124c-.039.847,1.233.847,1.31,0a8.69,8.69,0,0,1,15.214-5.277,8.568,8.568,0,0,1,2.118,5.277C146.417,133.486,147.689,133.486,147.65,132.638Z" transform="translate(-127.698 -90.617)" fill="#e04cab"></path><path d="M129.45,76.3a8.88,8.88,0,0,1,5.2-6.355.659.659,0,0,0,.462-.616V61.466a.675.675,0,0,0-.655-.655h-.963v-1.5h8.9v1.5h-.963a.675.675,0,0,0-.655.655v7.857a.659.659,0,0,0,.462.616,8.725,8.725,0,0,1,5.2,6.355c.154.809,1.425.462,1.232-.347a10.135,10.135,0,0,0-5.623-7.048V62.121h.963a.675.675,0,0,0,.655-.655V58.655a.675.675,0,0,0-.655-.655H132.84a.675.675,0,0,0-.655.655v2.812a.675.675,0,0,0,.655.655h.963V68.9a10.059,10.059,0,0,0-5.623,7.048C128.025,76.757,129.3,77.1,129.45,76.3Z" transform="translate(-127.986 -58)" fill="#e04cab"></path></g></g></svg> 